<svg width="751" height="1024" viewBox="0 0 751 1024" fill="none" xmlns="http://www.w3.org/2000/svg">
<g filter="url(#filter0_f_57_185)">
<circle cx="501" cy="290" r="250" fill="#E7E0A2"/>
</g>
<g filter="url(#filter1_f_57_185)">
<path d="M650 761C650 899.071 538.071 1011 400 1011C261.929 1011 150 899.071 150 761C150 622.929 261.929 511 400 511C538.071 511 650 622.929 650 761Z" fill="#8EA182"/>
</g>
<g filter="url(#filter2_d_57_185)">
<rect x="347" y="749.631" width="171.329" height="166.253" transform="rotate(-29.6019 347 749.631)" fill="#FFF5E5"/>
<rect x="355.181" y="751.884" width="159.329" height="154.253" transform="rotate(-29.6019 355.181 751.884)" stroke="#537041" stroke-width="12"/>
</g>
<g filter="url(#filter3_d_57_185)">
<circle cx="434.5" cy="879.5" r="87.5" fill="#FFF5E5"/>
<circle cx="434.5" cy="879.5" r="82.5" stroke="#E8DB64" stroke-width="10"/>
</g>
<mask id="mask0_57_185" style="mask-type:alpha" maskUnits="userSpaceOnUse" x="435" y="609" width="215" height="215">
<circle cx="542.5" cy="716.5" r="107.5" fill="#D9D9D9"/>
</mask>
<g mask="url(#mask0_57_185)">
<line x1="500.5" y1="497.067" x2="500.5" y2="935.939" stroke="#537041" stroke-width="3"/>
<line x1="579.5" y1="497.067" x2="579.5" y2="935.939" stroke="#537041" stroke-width="3"/>
<line x1="511.5" y1="497.067" x2="511.5" y2="935.939" stroke="#537041" stroke-width="3"/>
<line x1="592.5" y1="497.067" x2="592.5" y2="935.939" stroke="#537041" stroke-width="3"/>
<line x1="442.5" y1="497.067" x2="442.5" y2="935.939" stroke="#537041" stroke-width="3"/>
<line x1="521.5" y1="497.067" x2="521.5" y2="935.939" stroke="#537041" stroke-width="3"/>
<path d="M604.5 497.067V935.939" stroke="#537041" stroke-width="3"/>
<line x1="454.5" y1="497.067" x2="454.5" y2="935.939" stroke="#537041" stroke-width="3"/>
<line x1="533.5" y1="497.067" x2="533.5" y2="935.939" stroke="#537041" stroke-width="3"/>
<line x1="616.5" y1="497.067" x2="616.5" y2="935.939" stroke="#537041" stroke-width="3"/>
<line x1="466.5" y1="497.067" x2="466.5" y2="935.939" stroke="#537041" stroke-width="3"/>
<line x1="545.5" y1="497.067" x2="545.5" y2="935.939" stroke="#537041" stroke-width="3"/>
<line x1="628.5" y1="497.067" x2="628.5" y2="935.939" stroke="#537041" stroke-width="3"/>
<line x1="476.5" y1="497.067" x2="476.5" y2="935.939" stroke="#537041" stroke-width="3"/>
<line x1="555.5" y1="497.067" x2="555.5" y2="935.939" stroke="#537041" stroke-width="3"/>
<line x1="638.5" y1="497.067" x2="638.5" y2="935.939" stroke="#537041" stroke-width="3"/>
<line x1="488.5" y1="497.067" x2="488.5" y2="935.939" stroke="#537041" stroke-width="3"/>
<line x1="567.5" y1="497.067" x2="567.5" y2="935.939" stroke="#537041" stroke-width="3"/>
<line x1="650.5" y1="497.067" x2="650.5" y2="935.939" stroke="#537041" stroke-width="3"/>
<line x1="454.5" y1="497.067" x2="454.5" y2="935.939" stroke="#537041" stroke-width="3"/>
<line x1="533.5" y1="497.067" x2="533.5" y2="935.939" stroke="#537041" stroke-width="3"/>
<line x1="616.5" y1="497.067" x2="616.5" y2="935.939" stroke="#537041" stroke-width="3"/>
</g>
<defs>
<filter id="filter0_f_57_185" x="101" y="-110" width="800" height="800" filterUnits="userSpaceOnUse" color-interpolation-filters="sRGB">
<feFlood flood-opacity="0" result="BackgroundImageFix"/>
<feBlend mode="normal" in="SourceGraphic" in2="BackgroundImageFix" result="shape"/>
<feGaussianBlur stdDeviation="75" result="effect1_foregroundBlur_57_185"/>
</filter>
<filter id="filter1_f_57_185" x="0" y="361" width="800" height="800" filterUnits="userSpaceOnUse" color-interpolation-filters="sRGB">
<feFlood flood-opacity="0" result="BackgroundImageFix"/>
<feBlend mode="normal" in="SourceGraphic" in2="BackgroundImageFix" result="shape"/>
<feGaussianBlur stdDeviation="75" result="effect1_foregroundBlur_57_185"/>
</filter>
<filter id="filter2_d_57_185" x="343" y="665" width="239.091" height="237.185" filterUnits="userSpaceOnUse" color-interpolation-filters="sRGB">
<feFlood flood-opacity="0" result="BackgroundImageFix"/>
<feColorMatrix in="SourceAlpha" type="matrix" values="0 0 0 0 0 0 0 0 0 0 0 0 0 0 0 0 0 0 127 0" result="hardAlpha"/>
<feOffset dy="4"/>
<feGaussianBlur stdDeviation="2"/>
<feComposite in2="hardAlpha" operator="out"/>
<feColorMatrix type="matrix" values="0 0 0 0 0 0 0 0 0 0 0 0 0 0 0 0 0 0 0.25 0"/>
<feBlend mode="normal" in2="BackgroundImageFix" result="effect1_dropShadow_57_185"/>
<feBlend mode="normal" in="SourceGraphic" in2="effect1_dropShadow_57_185" result="shape"/>
</filter>
<filter id="filter3_d_57_185" x="343" y="792" width="183" height="183" filterUnits="userSpaceOnUse" color-interpolation-filters="sRGB">
<feFlood flood-opacity="0" result="BackgroundImageFix"/>
<feColorMatrix in="SourceAlpha" type="matrix" values="0 0 0 0 0 0 0 0 0 0 0 0 0 0 0 0 0 0 127 0" result="hardAlpha"/>
<feOffset dy="4"/>
<feGaussianBlur stdDeviation="2"/>
<feComposite in2="hardAlpha" operator="out"/>
<feColorMatrix type="matrix" values="0 0 0 0 0 0 0 0 0 0 0 0 0 0 0 0 0 0 0.25 0"/>
<feBlend mode="normal" in2="BackgroundImageFix" result="effect1_dropShadow_57_185"/>
<feBlend mode="normal" in="SourceGraphic" in2="effect1_dropShadow_57_185" result="shape"/>
</filter>
</defs>
</svg>
